<?xml version="1.0" encoding="UTF-8" standalone="no"?>
<!-- Created with Inkscape (http://www.inkscape.org/) -->

<svg
   xmlns:dc="http://purl.org/dc/elements/1.1/"
   xmlns:cc="http://creativecommons.org/ns#"
   xmlns:rdf="http://www.w3.org/1999/02/22-rdf-syntax-ns#"
   xmlns:svg="http://www.w3.org/2000/svg"
   xmlns="http://www.w3.org/2000/svg"
   xmlns:sodipodi="http://sodipodi.sourceforge.net/DTD/sodipodi-0.dtd"
   xmlns:inkscape="http://www.inkscape.org/namespaces/inkscape"
   width="744.09448819"
   height="1052.3622047"
   id="svg3362"
   version="1.1"
   inkscape:version="0.48.4 r9939"
   sodipodi:docname="right_strokes.svg"
   inkscape:export-filename="/home/mrdog/prog/tennis-charting/res/drawable-hdpi/right_strokes.png"
   inkscape:export-xdpi="72.00209"
   inkscape:export-ydpi="72.00209">
  <sodipodi:namedview
     id="base"
     pagecolor="#ffffff"
     bordercolor="#666666"
     borderopacity="1.0"
     inkscape:pageopacity="0.0"
     inkscape:pageshadow="2"
     inkscape:zoom="0.49497475"
     inkscape:cx="319.78798"
     inkscape:cy="592.46019"
     inkscape:document-units="px"
     inkscape:current-layer="layer1"
     showgrid="false"
     inkscape:window-width="1356"
     inkscape:window-height="827"
     inkscape:window-x="463"
     inkscape:window-y="74"
     inkscape:window-maximized="0" />
  <defs
     id="defs3364">
    <marker
       style="overflow:visible"
       id="Arrow1SendWky"
       refX="0"
       refY="0"
       orient="auto"
       inkscape:stockid="Arrow1SendWky">
      <path
         inkscape:connector-curvature="0"
         transform="matrix(-0.2,0,0,-0.2,-1.2,0)"
         style="fill:#ff0000;fill-rule:evenodd;stroke:#ff0000;stroke-width:1pt"
         d="M 0,0 5,-5 -12.5,0 5,5 0,0 z"
         id="path7468" />
    </marker>
    <marker
       style="overflow:visible"
       id="Arrow1SendW3"
       refX="0"
       refY="0"
       orient="auto"
       inkscape:stockid="Arrow1SendW3">
      <path
         inkscape:connector-curvature="0"
         transform="matrix(-0.2,0,0,-0.2,-1.2,0)"
         style="fill:#ff0000;fill-rule:evenodd;stroke:#ff0000;stroke-width:1pt"
         d="M 0,0 5,-5 -12.5,0 5,5 0,0 z"
         id="path7447" />
    </marker>
    <marker
       style="overflow:visible"
       id="Arrow1SendWo"
       refX="0"
       refY="0"
       orient="auto"
       inkscape:stockid="Arrow1SendWo">
      <path
         inkscape:connector-curvature="0"
         transform="matrix(-0.2,0,0,-0.2,-1.2,0)"
         style="fill:#ff0000;fill-rule:evenodd;stroke:#ff0000;stroke-width:1pt"
         d="M 0,0 5,-5 -12.5,0 5,5 0,0 z"
         id="path7456" />
    </marker>
    <marker
       style="overflow:visible"
       id="Arrow1SendWc"
       refX="0"
       refY="0"
       orient="auto"
       inkscape:stockid="Arrow1SendWc">
      <path
         inkscape:connector-curvature="0"
         transform="matrix(-0.2,0,0,-0.2,-1.2,0)"
         style="fill:#ff0000;fill-rule:evenodd;stroke:#ff0000;stroke-width:1pt"
         d="M 0,0 5,-5 -12.5,0 5,5 0,0 z"
         id="path7459" />
    </marker>
    <marker
       style="overflow:visible"
       id="Arrow1SendWX"
       refX="0"
       refY="0"
       orient="auto"
       inkscape:stockid="Arrow1SendWX">
      <path
         inkscape:connector-curvature="0"
         transform="matrix(-0.2,0,0,-0.2,-1.2,0)"
         style="fill:#ff0000;fill-rule:evenodd;stroke:#ff0000;stroke-width:1pt"
         d="M 0,0 5,-5 -12.5,0 5,5 0,0 z"
         id="path7453" />
    </marker>
    <marker
       style="overflow:visible"
       id="Arrow1SendWC"
       refX="0"
       refY="0"
       orient="auto"
       inkscape:stockid="Arrow1SendWC">
      <path
         inkscape:connector-curvature="0"
         transform="matrix(-0.2,0,0,-0.2,-1.2,0)"
         style="fill:#ff0000;fill-rule:evenodd;stroke:#ff0000;stroke-width:1pt"
         d="M 0,0 5,-5 -12.5,0 5,5 0,0 z"
         id="path7480" />
    </marker>
    <marker
       style="overflow:visible"
       id="Arrow1SendW3k"
       refX="0"
       refY="0"
       orient="auto"
       inkscape:stockid="Arrow1SendW3k">
      <path
         inkscape:connector-curvature="0"
         transform="matrix(-0.2,0,0,-0.2,-1.2,0)"
         style="stroke-width:1pt;stroke:#999999;fill-rule:evenodd;fill:#999999"
         d="M 0,0 5,-5 -12.5,0 5,5 0,0 z"
         id="path3456" />
    </marker>
    <marker
       style="overflow:visible"
       id="Arrow1SendWXy"
       refX="0"
       refY="0"
       orient="auto"
       inkscape:stockid="Arrow1SendWXy">
      <path
         inkscape:connector-curvature="0"
         transform="matrix(-0.2,0,0,-0.2,-1.2,0)"
         style="stroke-width:1pt;stroke:#999999;fill-rule:evenodd;fill:#999999"
         d="M 0,0 5,-5 -12.5,0 5,5 0,0 z"
         id="path3459" />
    </marker>
    <marker
       style="overflow:visible"
       id="Arrow1SendWoK"
       refX="0"
       refY="0"
       orient="auto"
       inkscape:stockid="Arrow1SendWoK">
      <path
         inkscape:connector-curvature="0"
         transform="matrix(-0.2,0,0,-0.2,-1.2,0)"
         style="stroke-width:1pt;stroke:#999999;fill-rule:evenodd;fill:#999999"
         d="M 0,0 5,-5 -12.5,0 5,5 0,0 z"
         id="path3462" />
    </marker>
    <marker
       style="overflow:visible"
       id="Arrow1SendWcS"
       refX="0"
       refY="0"
       orient="auto"
       inkscape:stockid="Arrow1SendWcS">
      <path
         inkscape:connector-curvature="0"
         transform="matrix(-0.2,0,0,-0.2,-1.2,0)"
         style="stroke-width:1pt;stroke:#999999;fill-rule:evenodd;fill:#999999"
         d="M 0,0 5,-5 -12.5,0 5,5 0,0 z"
         id="path3465" />
    </marker>
    <marker
       style="overflow:visible"
       id="Arrow1SendWCJ"
       refX="0"
       refY="0"
       orient="auto"
       inkscape:stockid="Arrow1SendWCJ">
      <path
         inkscape:connector-curvature="0"
         transform="matrix(-0.2,0,0,-0.2,-1.2,0)"
         style="stroke-width:1pt;stroke:#999999;fill-rule:evenodd;fill:#999999"
         d="M 0,0 5,-5 -12.5,0 5,5 0,0 z"
         id="path3468" />
    </marker>
    <marker
       style="overflow:visible"
       id="Arrow1SendWkyr"
       refX="0"
       refY="0"
       orient="auto"
       inkscape:stockid="Arrow1SendWkyr">
      <path
         inkscape:connector-curvature="0"
         transform="matrix(-0.2,0,0,-0.2,-1.2,0)"
         style="stroke-width:1pt;stroke:#999999;fill-rule:evenodd;fill:#999999"
         d="M 0,0 5,-5 -12.5,0 5,5 0,0 z"
         id="path3471" />
    </marker>
    <marker
       style="overflow:visible"
       id="Arrow1SendW3kV"
       refX="0"
       refY="0"
       orient="auto"
       inkscape:stockid="Arrow1SendW3kV">
      <path
         inkscape:connector-curvature="0"
         transform="matrix(-0.2,0,0,-0.2,-1.2,0)"
         style="stroke:#999999;stroke-width:1pt;fill:#999999;fill-rule:evenodd"
         d="M 0,0 5,-5 -12.5,0 5,5 0,0 z"
         id="path3748" />
    </marker>
    <marker
       style="overflow:visible"
       id="Arrow1SendWXy6"
       refX="0"
       refY="0"
       orient="auto"
       inkscape:stockid="Arrow1SendWXy6">
      <path
         inkscape:connector-curvature="0"
         transform="matrix(-0.2,0,0,-0.2,-1.2,0)"
         style="stroke:#b3b3b3;stroke-width:1pt;fill:#b3b3b3;fill-rule:evenodd"
         d="M 0,0 5,-5 -12.5,0 5,5 0,0 z"
         id="path3751" />
    </marker>
    <marker
       style="overflow:visible"
       id="Arrow1SendWoK8"
       refX="0"
       refY="0"
       orient="auto"
       inkscape:stockid="Arrow1SendWoK8">
      <path
         inkscape:connector-curvature="0"
         transform="matrix(-0.2,0,0,-0.2,-1.2,0)"
         style="stroke:#b3b3b3;stroke-width:1pt;fill:#b3b3b3;fill-rule:evenodd"
         d="M 0,0 5,-5 -12.5,0 5,5 0,0 z"
         id="path3754" />
    </marker>
    <marker
       style="overflow:visible"
       id="Arrow1SendWcSM"
       refX="0"
       refY="0"
       orient="auto"
       inkscape:stockid="Arrow1SendWcSM">
      <path
         inkscape:connector-curvature="0"
         transform="matrix(-0.2,0,0,-0.2,-1.2,0)"
         style="stroke:#b3b3b3;stroke-width:1pt;fill:#b3b3b3;fill-rule:evenodd"
         d="M 0,0 5,-5 -12.5,0 5,5 0,0 z"
         id="path3757" />
    </marker>
    <marker
       style="overflow:visible"
       id="Arrow1SendWCJ0"
       refX="0"
       refY="0"
       orient="auto"
       inkscape:stockid="Arrow1SendWCJ0">
      <path
         inkscape:connector-curvature="0"
         transform="matrix(-0.2,0,0,-0.2,-1.2,0)"
         style="stroke:#b3b3b3;stroke-width:1pt;fill:#b3b3b3;fill-rule:evenodd"
         d="M 0,0 5,-5 -12.5,0 5,5 0,0 z"
         id="path3760" />
    </marker>
    <marker
       style="overflow:visible"
       id="Arrow1SendWkyrR"
       refX="0"
       refY="0"
       orient="auto"
       inkscape:stockid="Arrow1SendWkyrR">
      <path
         inkscape:connector-curvature="0"
         transform="matrix(-0.2,0,0,-0.2,-1.2,0)"
         style="stroke:#b3b3b3;stroke-width:1pt;fill:#b3b3b3;fill-rule:evenodd"
         d="M 0,0 5,-5 -12.5,0 5,5 0,0 z"
         id="path3763" />
    </marker>
    <marker
       style="overflow:visible"
       id="Arrow1SendW3kV7"
       refX="0"
       refY="0"
       orient="auto"
       inkscape:stockid="Arrow1SendW3kV7">
      <path
         inkscape:connector-curvature="0"
         transform="matrix(-0.2,0,0,-0.2,-1.2,0)"
         style="fill-rule:evenodd;stroke:#808080;stroke-width:1pt;fill:#808080"
         d="M 0,0 5,-5 -12.5,0 5,5 0,0 z"
         id="path3896" />
    </marker>
    <marker
       style="overflow:visible"
       id="Arrow1SendWXy6m"
       refX="0"
       refY="0"
       orient="auto"
       inkscape:stockid="Arrow1SendWXy6m">
      <path
         inkscape:connector-curvature="0"
         transform="matrix(-0.2,0,0,-0.2,-1.2,0)"
         style="fill-rule:evenodd;stroke:#808080;stroke-width:1pt;fill:#808080"
         d="M 0,0 5,-5 -12.5,0 5,5 0,0 z"
         id="path3899" />
    </marker>
    <marker
       style="overflow:visible"
       id="Arrow1SendWoK8q"
       refX="0"
       refY="0"
       orient="auto"
       inkscape:stockid="Arrow1SendWoK8q">
      <path
         inkscape:connector-curvature="0"
         transform="matrix(-0.2,0,0,-0.2,-1.2,0)"
         style="fill-rule:evenodd;stroke:#808080;stroke-width:1pt;fill:#808080"
         d="M 0,0 5,-5 -12.5,0 5,5 0,0 z"
         id="path3902" />
    </marker>
    <marker
       style="overflow:visible"
       id="Arrow1SendWcSMy"
       refX="0"
       refY="0"
       orient="auto"
       inkscape:stockid="Arrow1SendWcSMy">
      <path
         inkscape:connector-curvature="0"
         transform="matrix(-0.2,0,0,-0.2,-1.2,0)"
         style="fill-rule:evenodd;stroke:#808080;stroke-width:1pt;fill:#808080"
         d="M 0,0 5,-5 -12.5,0 5,5 0,0 z"
         id="path3905" />
    </marker>
    <marker
       style="overflow:visible"
       id="Arrow1SendWCJ0z"
       refX="0"
       refY="0"
       orient="auto"
       inkscape:stockid="Arrow1SendWCJ0z">
      <path
         inkscape:connector-curvature="0"
         transform="matrix(-0.2,0,0,-0.2,-1.2,0)"
         style="fill-rule:evenodd;stroke:#808080;stroke-width:1pt;fill:#808080"
         d="M 0,0 5,-5 -12.5,0 5,5 0,0 z"
         id="path3908" />
    </marker>
    <marker
       style="overflow:visible"
       id="Arrow1SendWkyrRu"
       refX="0"
       refY="0"
       orient="auto"
       inkscape:stockid="Arrow1SendWkyrRu">
      <path
         inkscape:connector-curvature="0"
         transform="matrix(-0.2,0,0,-0.2,-1.2,0)"
         style="fill-rule:evenodd;stroke:#808080;stroke-width:1pt;fill:#808080"
         d="M 0,0 5,-5 -12.5,0 5,5 0,0 z"
         id="path3911" />
    </marker>
    <marker
       style="overflow:visible"
       id="Arrow1SendWcSMy-1"
       refX="0"
       refY="0"
       orient="auto"
       inkscape:stockid="Arrow1SendWcSMy">
      <path
         inkscape:connector-curvature="0"
         transform="matrix(-0.2,0,0,-0.2,-1.2,0)"
         style="fill:#808080;fill-rule:evenodd;stroke:#808080;stroke-width:1pt"
         d="M 0,0 5,-5 -12.5,0 5,5 0,0 z"
         id="path3905-9" />
    </marker>
    <marker
       style="overflow:visible"
       id="Arrow1SendWcSMyt"
       refX="0"
       refY="0"
       orient="auto"
       inkscape:stockid="Arrow1SendWcSMyt">
      <path
         inkscape:connector-curvature="0"
         transform="matrix(-0.2,0,0,-0.2,-1.2,0)"
         style="stroke:#555555;stroke-width:1pt;fill:#555555;fill-rule:evenodd"
         d="M 0,0 5,-5 -12.5,0 5,5 0,0 z"
         id="path5007" />
    </marker>
    <marker
       style="overflow:visible"
       id="Arrow1SendWcSMyj"
       refX="0"
       refY="0"
       orient="auto"
       inkscape:stockid="Arrow1SendWcSMyj">
      <path
         inkscape:connector-curvature="0"
         transform="matrix(-0.2,0,0,-0.2,-1.2,0)"
         style="stroke:#555555;stroke-width:1pt;fill:#555555;fill-rule:evenodd"
         d="M 0,0 5,-5 -12.5,0 5,5 0,0 z"
         id="path5010" />
    </marker>
    <marker
       style="overflow:visible"
       id="Arrow1SendWcSMyl"
       refX="0"
       refY="0"
       orient="auto"
       inkscape:stockid="Arrow1SendWcSMyl">
      <path
         inkscape:connector-curvature="0"
         transform="matrix(-0.2,0,0,-0.2,-1.2,0)"
         style="stroke:#555555;stroke-width:1pt;fill:#555555;fill-rule:evenodd"
         d="M 0,0 5,-5 -12.5,0 5,5 0,0 z"
         id="path5013" />
    </marker>
    <marker
       style="overflow:visible"
       id="Arrow1SendWcSMyw"
       refX="0"
       refY="0"
       orient="auto"
       inkscape:stockid="Arrow1SendWcSMyw">
      <path
         inkscape:connector-curvature="0"
         transform="matrix(-0.2,0,0,-0.2,-1.2,0)"
         style="stroke:#555555;stroke-width:1pt;fill:#555555;fill-rule:evenodd"
         d="M 0,0 5,-5 -12.5,0 5,5 0,0 z"
         id="path5016" />
    </marker>
    <marker
       style="overflow:visible"
       id="Arrow1SendWcSMyr"
       refX="0"
       refY="0"
       orient="auto"
       inkscape:stockid="Arrow1SendWcSMyr">
      <path
         inkscape:connector-curvature="0"
         transform="matrix(-0.2,0,0,-0.2,-1.2,0)"
         style="stroke:#555555;stroke-width:1pt;fill:#555555;fill-rule:evenodd"
         d="M 0,0 5,-5 -12.5,0 5,5 0,0 z"
         id="path5019" />
    </marker>
    <marker
       style="overflow:visible"
       id="Arrow1SendWcSMyT"
       refX="0"
       refY="0"
       orient="auto"
       inkscape:stockid="Arrow1SendWcSMyT">
      <path
         inkscape:connector-curvature="0"
         transform="matrix(-0.2,0,0,-0.2,-1.2,0)"
         style="stroke:#555555;stroke-width:1pt;fill:#555555;fill-rule:evenodd"
         d="M 0,0 5,-5 -12.5,0 5,5 0,0 z"
         id="path5022" />
    </marker>
    <marker
       style="overflow:visible"
       id="Arrow1SendWcSMyT-9"
       refX="0"
       refY="0"
       orient="auto"
       inkscape:stockid="Arrow1SendWcSMyT">
      <path
         inkscape:connector-curvature="0"
         transform="matrix(-0.2,0,0,-0.2,-1.2,0)"
         style="fill:#555555;fill-rule:evenodd;stroke:#555555;stroke-width:1pt"
         d="M 0,0 5,-5 -12.5,0 5,5 0,0 z"
         id="path5022-9" />
    </marker>
    <marker
       style="overflow:visible"
       id="Arrow1SendWcSMyt-1"
       refX="0"
       refY="0"
       orient="auto"
       inkscape:stockid="Arrow1SendWcSMyt">
      <path
         inkscape:connector-curvature="0"
         transform="matrix(-0.2,0,0,-0.2,-1.2,0)"
         style="fill:#555555;fill-rule:evenodd;stroke:#555555;stroke-width:1pt"
         d="M 0,0 5,-5 -12.5,0 5,5 0,0 z"
         id="path5007-0" />
    </marker>
    <marker
       style="overflow:visible"
       id="Arrow1SendWcSMyw-2"
       refX="0"
       refY="0"
       orient="auto"
       inkscape:stockid="Arrow1SendWcSMyw">
      <path
         inkscape:connector-curvature="0"
         transform="matrix(-0.2,0,0,-0.2,-1.2,0)"
         style="fill:#555555;fill-rule:evenodd;stroke:#555555;stroke-width:1pt"
         d="M 0,0 5,-5 -12.5,0 5,5 0,0 z"
         id="path5016-1" />
    </marker>
    <marker
       style="overflow:visible"
       id="Arrow1SendWcSMyl-2"
       refX="0"
       refY="0"
       orient="auto"
       inkscape:stockid="Arrow1SendWcSMyl">
      <path
         inkscape:connector-curvature="0"
         transform="matrix(-0.2,0,0,-0.2,-1.2,0)"
         style="fill:#555555;fill-rule:evenodd;stroke:#555555;stroke-width:1pt"
         d="M 0,0 5,-5 -12.5,0 5,5 0,0 z"
         id="path5013-4" />
    </marker>
    <marker
       style="overflow:visible"
       id="Arrow1SendWcSMyj-7"
       refX="0"
       refY="0"
       orient="auto"
       inkscape:stockid="Arrow1SendWcSMyj">
      <path
         inkscape:connector-curvature="0"
         transform="matrix(-0.2,0,0,-0.2,-1.2,0)"
         style="fill:#555555;fill-rule:evenodd;stroke:#555555;stroke-width:1pt"
         d="M 0,0 5,-5 -12.5,0 5,5 0,0 z"
         id="path5010-5" />
    </marker>
    <marker
       style="overflow:visible"
       id="marker3209"
       refX="0"
       refY="0"
       orient="auto"
       inkscape:stockid="Arrow1SendWcSMyt">
      <path
         inkscape:connector-curvature="0"
         transform="matrix(-0.2,0,0,-0.2,-1.2,0)"
         style="fill:#555555;fill-rule:evenodd;stroke:#555555;stroke-width:1pt"
         d="M 0,0 5,-5 -12.5,0 5,5 0,0 z"
         id="path3211" />
    </marker>
  </defs>
  <metadata
     id="metadata3367">
    <rdf:RDF>
      <cc:Work
         rdf:about="">
        <dc:format>image/svg+xml</dc:format>
        <dc:type
           rdf:resource="http://purl.org/dc/dcmitype/StillImage" />
        <dc:title></dc:title>
      </cc:Work>
    </rdf:RDF>
  </metadata>
  <g
     inkscape:label="Layer 1"
     inkscape:groupmode="layer"
     id="layer1">
    <path
       style="color:#000000;fill:#555555;fill-opacity:1;fill-rule:nonzero;stroke:#555555;stroke-width:32.3423233;stroke-linecap:butt;stroke-linejoin:miter;stroke-miterlimit:4;stroke-opacity:1;stroke-dasharray:none;stroke-dashoffset:0;marker:none;marker-end:url(#Arrow1SendWcSMyt);visibility:visible;display:inline;overflow:visible;enable-background:accumulate"
       d="m 495.81738,434.11323 -291.98985,3e-5"
       id="path3068"
       inkscape:connector-curvature="0"
       sodipodi:nodetypes="cc" />
    <path
       inkscape:connector-curvature="0"
       id="path2987-3"
       d="m 535.02792,361.17292 0,-263.358931"
       style="color:#000000;fill:#555555;fill-opacity:1;fill-rule:nonzero;stroke:#555555;stroke-width:32.3423233;stroke-linecap:butt;stroke-linejoin:miter;stroke-miterlimit:4;stroke-opacity:1;stroke-dasharray:none;stroke-dashoffset:0;marker:none;marker-end:url(#Arrow1SendWcSMyj);visibility:visible;display:inline;overflow:visible;enable-background:accumulate" />
    <path
       style="color:#000000;fill:#555555;fill-opacity:1;fill-rule:nonzero;stroke:#555555;stroke-width:30.82186699;stroke-linecap:butt;stroke-linejoin:miter;stroke-miterlimit:4;stroke-opacity:1;stroke-dasharray:none;stroke-dashoffset:0;marker:none;marker-end:url(#Arrow1SendWcSMyl);visibility:visible;display:inline;overflow:visible;enable-background:accumulate"
       d="m 464.5266,531.18765 0,246.68616"
       id="path4412-1"
       inkscape:connector-curvature="0"
       sodipodi:nodetypes="cc" />
    <path
       style="color:#000000;fill:#555555;fill-opacity:1;fill-rule:nonzero;stroke:#555555;stroke-width:32.3423233;stroke-linecap:butt;stroke-linejoin:miter;stroke-miterlimit:4;stroke-opacity:1;stroke-dasharray:none;stroke-dashoffset:0;marker:none;marker-end:url(#Arrow1SendWcSMyw);visibility:visible;display:inline;overflow:visible;enable-background:accumulate"
       d="M 421.86358,382.03581 156.19447,157.94971"
       id="path4416-6"
       inkscape:connector-curvature="0"
       sodipodi:nodetypes="cc" />
    <path
       sodipodi:nodetypes="cc"
       inkscape:connector-curvature="0"
       id="path4418-8"
       d="m 369.88048,480.58025 291.98984,3e-5"
       style="color:#000000;fill:#555555;fill-opacity:1;fill-rule:nonzero;stroke:#555555;stroke-width:32.3423233;stroke-linecap:butt;stroke-linejoin:miter;stroke-miterlimit:4;stroke-opacity:1;stroke-dasharray:none;stroke-dashoffset:0;marker:none;marker-end:url(#Arrow1SendWcSMyt);visibility:visible;display:inline;overflow:visible;enable-background:accumulate" />
    <text
       xml:space="preserve"
       style="font-size:45.27925491px;font-style:normal;font-variant:normal;font-weight:normal;font-stretch:normal;line-height:125%;letter-spacing:0px;word-spacing:0px;fill:#656565;fill-opacity:1;stroke:#666666;stroke-width:1.61711621;stroke-opacity:1;font-family:Abel;-inkscape-font-specification:Abel"
       x="569.10229"
       y="236.13728"
       id="text4597-4-9"
       sodipodi:linespacing="125%"><tspan
         style="fill:#656565;fill-opacity:1;stroke:#666666;stroke-width:1.61711621;stroke-opacity:1"
         sodipodi:role="line"
         x="569.10229"
         y="236.13728"
         id="tspan4601-2-9">Lob</tspan></text>
    <text
       xml:space="preserve"
       style="font-size:45.27925491px;font-style:normal;font-variant:normal;font-weight:normal;font-stretch:normal;line-height:125%;letter-spacing:0px;word-spacing:0px;fill:#656565;fill-opacity:1;stroke:#666666;stroke-width:1.61711621;stroke-opacity:1;font-family:Abel;-inkscape-font-specification:Abel"
       x="520.52655"
       y="677.97174"
       id="text4597-4-5-7"
       sodipodi:linespacing="125%"><tspan
         style="fill:#656565;fill-opacity:1;stroke:#666666;stroke-width:1.61711621;stroke-opacity:1"
         sodipodi:role="line"
         x="520.52655"
         y="677.97174"
         id="tspan4601-2-7-2">Drop</tspan><tspan
         style="fill:#656565;fill-opacity:1;stroke:#666666;stroke-width:1.61711621;stroke-opacity:1"
         sodipodi:role="line"
         x="520.52655"
         y="734.5708"
         id="tspan4652-7">shot</tspan></text>
    <text
       xml:space="preserve"
       style="font-size:45.27925491px;font-style:normal;font-variant:normal;font-weight:normal;font-stretch:normal;line-height:125%;letter-spacing:0px;word-spacing:0px;fill:#656565;fill-opacity:1;stroke:#666666;stroke-width:1.61711621;stroke-opacity:1;font-family:Abel;-inkscape-font-specification:Abel"
       x="294.26642"
       y="179.50145"
       id="text4597-4-5-5-6"
       sodipodi:linespacing="125%"><tspan
         style="fill:#656565;fill-opacity:1;stroke:#666666;stroke-width:1.61711621;stroke-opacity:1"
         sodipodi:role="line"
         x="294.26642"
         y="179.50145"
         id="tspan4652-6-2">Swinging</tspan><tspan
         style="fill:#656565;fill-opacity:1;stroke:#666666;stroke-width:1.61711621;stroke-opacity:1"
         sodipodi:role="line"
         x="294.26642"
         y="236.10052"
         id="tspan4680-1">Volley</tspan></text>
    <text
       xml:space="preserve"
       style="font-size:45.27925491px;font-style:normal;font-variant:normal;font-weight:normal;font-stretch:normal;line-height:125%;letter-spacing:0px;word-spacing:0px;fill:#656565;fill-opacity:1;stroke:#666666;stroke-width:1.61711621;stroke-opacity:1;font-family:Abel;-inkscape-font-specification:Abel"
       x="149.92001"
       y="383.61096"
       id="text4597-4-5-5-9-2"
       sodipodi:linespacing="125%"><tspan
         style="fill:#656565;fill-opacity:1;stroke:#666666;stroke-width:1.61711621;stroke-opacity:1"
         sodipodi:role="line"
         x="149.92001"
         y="383.61096"
         id="tspan4712-1">Volley</tspan></text>
    <text
       xml:space="preserve"
       style="font-size:45.27925491px;font-style:normal;font-variant:normal;font-weight:normal;font-stretch:normal;line-height:125%;letter-spacing:0px;word-spacing:0px;fill:#656565;fill-opacity:1;stroke:#666666;stroke-width:1.61711621;stroke-opacity:1;font-family:Abel;-inkscape-font-specification:Abel"
       x="619.12823"
       y="420.34641"
       id="text4597-4-5-5-9-9-7"
       sodipodi:linespacing="125%"><tspan
         style="fill:#656565;fill-opacity:1;stroke:#666666;stroke-width:1.61711621;stroke-opacity:1"
         sodipodi:role="line"
         x="619.12823"
         y="420.34641"
         id="tspan4712-5-6">Slice</tspan></text>
    <path
       sodipodi:nodetypes="cc"
       inkscape:connector-curvature="0"
       id="path4422-4-0-6"
       d="M 345.44708,549.29706 177.47544,705.88438"
       style="color:#000000;fill:#555555;fill-opacity:1;fill-rule:nonzero;stroke:#555555;stroke-width:32.3423233;stroke-linecap:butt;stroke-linejoin:miter;stroke-miterlimit:4;stroke-opacity:1;stroke-dasharray:none;stroke-dashoffset:0;marker:none;marker-end:url(#Arrow1SendWcSMyT);visibility:visible;display:inline;overflow:visible;enable-background:accumulate" />
    <text
       xml:space="preserve"
       style="font-size:45.27925491px;font-style:normal;font-variant:normal;font-weight:normal;font-stretch:normal;line-height:125%;letter-spacing:0px;word-spacing:0px;fill:#656565;fill-opacity:1;stroke:#666666;stroke-width:1.61711621;stroke-opacity:1;font-family:Abel;-inkscape-font-specification:Abel"
       x="153.9875"
       y="771.40796"
       id="text4597-4-5-5-9-9-7-9-7-0-0"
       sodipodi:linespacing="125%"><tspan
         style="fill:#656565;fill-opacity:1;stroke:#666666;stroke-width:1.61711621;stroke-opacity:1"
         sodipodi:role="line"
         x="153.9875"
         y="771.40796"
         id="tspan4779-8-3-5">Half-volley</tspan></text>
    <text
       inkscape:export-ydpi="72.00209"
       inkscape:export-xdpi="72.00209"
       inkscape:export-filename="/home/mrdog/prog/tennis-charting/res/drawable-hdpi/text4597.png"
       sodipodi:linespacing="125%"
       id="text4597-5"
       y="871.34802"
       x="148.55331"
       style="font-size:45.27925491px;font-style:normal;font-variant:normal;font-weight:normal;font-stretch:normal;line-height:125%;letter-spacing:0px;word-spacing:0px;fill:#656565;fill-opacity:1;stroke:#666666;stroke-width:1.61711621;stroke-opacity:1;font-family:Abel;-inkscape-font-specification:Abel"
       xml:space="preserve"><tspan
         id="tspan3626-1"
         style="fill:#656565;fill-opacity:1;stroke:#666666;stroke-width:1.61711621;stroke-opacity:1"
         y="871.34802"
         x="148.55331"
         sodipodi:role="line">Tap anywhere for groundstroke</tspan></text>
    <path
       sodipodi:type="arc"
       style="color:#000000;fill:#666666;fill-opacity:1;fill-rule:nonzero;stroke:#4d4d4d;stroke-opacity:1;marker:none;visibility:visible;display:inline;overflow:visible;enable-background:accumulate"
       id="path3081"
       sodipodi:cx="41.42857"
       sodipodi:cy="198.57143"
       sodipodi:rx="27.142857"
       sodipodi:ry="27.142857"
       d="m 68.571426,198.57143 a 27.142857,27.142857 0 1 1 -54.285713,0 27.142857,27.142857 0 1 1 54.285713,0 z"
       transform="matrix(-0.9670794,0,0,0.9670794,573.76888,164.31484)" />
    <path
       transform="matrix(-0.9670794,0,0,0.9670794,387.90081,356.24382)"
       d="m 68.571426,198.57143 a 27.142857,27.142857 0 1 1 -54.285713,0 27.142857,27.142857 0 1 1 54.285713,0 z"
       sodipodi:ry="27.142857"
       sodipodi:rx="27.142857"
       sodipodi:cy="198.57143"
       sodipodi:cx="41.42857"
       id="path2985-4"
       style="color:#000000;fill:#666666;fill-opacity:1;fill-rule:nonzero;stroke:#4d4d4d;stroke-opacity:1;marker:none;visibility:visible;display:inline;overflow:visible;enable-background:accumulate"
       sodipodi:type="arc" />
    <path
       sodipodi:type="arc"
       style="color:#000000;fill:#666666;fill-opacity:1;fill-rule:nonzero;stroke:#4d4d4d;stroke-opacity:1;marker:none;visibility:visible;display:inline;overflow:visible;enable-background:accumulate"
       id="path3083"
       sodipodi:cx="41.42857"
       sodipodi:cy="198.57143"
       sodipodi:rx="27.142857"
       sodipodi:ry="27.142857"
       d="m 68.571426,198.57143 a 27.142857,27.142857 0 1 1 -54.285713,0 27.142857,27.142857 0 1 1 54.285713,0 z"
       transform="matrix(-0.9670794,0,0,0.9670794,501.03789,348.1626)" />
    <path
       transform="matrix(-0.9670794,0,0,0.9670794,460.63179,186.53819)"
       d="m 68.571426,198.57143 a 27.142857,27.142857 0 1 1 -54.285713,0 27.142857,27.142857 0 1 1 54.285713,0 z"
       sodipodi:ry="27.142857"
       sodipodi:rx="27.142857"
       sodipodi:cy="198.57143"
       sodipodi:cx="41.42857"
       id="path3085"
       style="color:#000000;fill:#666666;fill-opacity:1;fill-rule:nonzero;stroke:#4d4d4d;stroke-opacity:1;marker:none;visibility:visible;display:inline;overflow:visible;enable-background:accumulate"
       sodipodi:type="arc" />
    <path
       sodipodi:type="arc"
       style="color:#000000;fill:#666666;fill-opacity:1;fill-rule:nonzero;stroke:#4d4d4d;stroke-opacity:1;marker:none;visibility:visible;display:inline;overflow:visible;enable-background:accumulate"
       id="path3087"
       sodipodi:cx="41.42857"
       sodipodi:cy="198.57143"
       sodipodi:rx="27.142857"
       sodipodi:ry="27.142857"
       d="m 68.571426,198.57143 a 27.142857,27.142857 0 1 1 -54.285713,0 27.142857,27.142857 0 1 1 54.285713,0 z"
       transform="matrix(-0.9670794,0,0,0.9670794,527.30186,235.02551)" />
    <path
       transform="matrix(-0.9670794,0,0,0.9670794,412.14447,291.59405)"
       d="m 68.571426,198.57143 a 27.142857,27.142857 0 1 1 -54.285713,0 27.142857,27.142857 0 1 1 54.285713,0 z"
       sodipodi:ry="27.142857"
       sodipodi:rx="27.142857"
       sodipodi:cy="198.57143"
       sodipodi:cx="41.42857"
       id="path3089"
       style="color:#000000;fill:#666666;fill-opacity:1;fill-rule:nonzero;stroke:#4d4d4d;stroke-opacity:1;marker:none;visibility:visible;display:inline;overflow:visible;enable-background:accumulate"
       sodipodi:type="arc" />
  </g>
</svg>
