<?xml version="1.0" encoding="UTF-8" standalone="no"?>
<!-- Created with Inkscape (http://www.inkscape.org/) -->

<svg
   xmlns:dc="http://purl.org/dc/elements/1.1/"
   xmlns:cc="http://creativecommons.org/ns#"
   xmlns:rdf="http://www.w3.org/1999/02/22-rdf-syntax-ns#"
   xmlns:svg="http://www.w3.org/2000/svg"
   xmlns="http://www.w3.org/2000/svg"
   xmlns:sodipodi="http://sodipodi.sourceforge.net/DTD/sodipodi-0.dtd"
   xmlns:inkscape="http://www.inkscape.org/namespaces/inkscape"
   width="744.09448819"
   height="1052.3622047"
   id="svg3362"
   version="1.1"
   inkscape:version="0.48.4 r9939"
   sodipodi:docname="center_strokes.svg"
   inkscape:export-filename="/home/mrdog/prog/tennis-charting/res/drawable-hdpi/right_strokes.png"
   inkscape:export-xdpi="72.00209"
   inkscape:export-ydpi="72.00209">
  <sodipodi:namedview
     id="base"
     pagecolor="#ffffff"
     bordercolor="#666666"
     borderopacity="1.0"
     inkscape:pageopacity="0.0"
     inkscape:pageshadow="2"
     inkscape:zoom="0.49497475"
     inkscape:cx="425.28122"
     inkscape:cy="521.01496"
     inkscape:document-units="px"
     inkscape:current-layer="layer1"
     showgrid="false"
     inkscape:window-width="1356"
     inkscape:window-height="827"
     inkscape:window-x="160"
     inkscape:window-y="160"
     inkscape:window-maximized="0" />
  <defs
     id="defs3364">
    <marker
       style="overflow:visible"
       id="Arrow1SendWky"
       refX="0"
       refY="0"
       orient="auto"
       inkscape:stockid="Arrow1SendWky">
      <path
         inkscape:connector-curvature="0"
         transform="matrix(-0.2,0,0,-0.2,-1.2,0)"
         style="fill:#ff0000;fill-rule:evenodd;stroke:#ff0000;stroke-width:1pt"
         d="M 0,0 5,-5 -12.5,0 5,5 0,0 z"
         id="path7468" />
    </marker>
    <marker
       style="overflow:visible"
       id="Arrow1SendW3"
       refX="0"
       refY="0"
       orient="auto"
       inkscape:stockid="Arrow1SendW3">
      <path
         inkscape:connector-curvature="0"
         transform="matrix(-0.2,0,0,-0.2,-1.2,0)"
         style="fill:#ff0000;fill-rule:evenodd;stroke:#ff0000;stroke-width:1pt"
         d="M 0,0 5,-5 -12.5,0 5,5 0,0 z"
         id="path7447" />
    </marker>
    <marker
       style="overflow:visible"
       id="Arrow1SendWo"
       refX="0"
       refY="0"
       orient="auto"
       inkscape:stockid="Arrow1SendWo">
      <path
         inkscape:connector-curvature="0"
         transform="matrix(-0.2,0,0,-0.2,-1.2,0)"
         style="fill:#ff0000;fill-rule:evenodd;stroke:#ff0000;stroke-width:1pt"
         d="M 0,0 5,-5 -12.5,0 5,5 0,0 z"
         id="path7456" />
    </marker>
    <marker
       style="overflow:visible"
       id="Arrow1SendWc"
       refX="0"
       refY="0"
       orient="auto"
       inkscape:stockid="Arrow1SendWc">
      <path
         inkscape:connector-curvature="0"
         transform="matrix(-0.2,0,0,-0.2,-1.2,0)"
         style="fill:#ff0000;fill-rule:evenodd;stroke:#ff0000;stroke-width:1pt"
         d="M 0,0 5,-5 -12.5,0 5,5 0,0 z"
         id="path7459" />
    </marker>
    <marker
       style="overflow:visible"
       id="Arrow1SendWX"
       refX="0"
       refY="0"
       orient="auto"
       inkscape:stockid="Arrow1SendWX">
      <path
         inkscape:connector-curvature="0"
         transform="matrix(-0.2,0,0,-0.2,-1.2,0)"
         style="fill:#ff0000;fill-rule:evenodd;stroke:#ff0000;stroke-width:1pt"
         d="M 0,0 5,-5 -12.5,0 5,5 0,0 z"
         id="path7453" />
    </marker>
    <marker
       style="overflow:visible"
       id="Arrow1SendWC"
       refX="0"
       refY="0"
       orient="auto"
       inkscape:stockid="Arrow1SendWC">
      <path
         inkscape:connector-curvature="0"
         transform="matrix(-0.2,0,0,-0.2,-1.2,0)"
         style="fill:#ff0000;fill-rule:evenodd;stroke:#ff0000;stroke-width:1pt"
         d="M 0,0 5,-5 -12.5,0 5,5 0,0 z"
         id="path7480" />
    </marker>
    <marker
       style="overflow:visible"
       id="Arrow1SendW3k"
       refX="0"
       refY="0"
       orient="auto"
       inkscape:stockid="Arrow1SendW3k">
      <path
         inkscape:connector-curvature="0"
         transform="matrix(-0.2,0,0,-0.2,-1.2,0)"
         style="stroke-width:1pt;stroke:#999999;fill-rule:evenodd;fill:#999999"
         d="M 0,0 5,-5 -12.5,0 5,5 0,0 z"
         id="path3456" />
    </marker>
    <marker
       style="overflow:visible"
       id="Arrow1SendWXy"
       refX="0"
       refY="0"
       orient="auto"
       inkscape:stockid="Arrow1SendWXy">
      <path
         inkscape:connector-curvature="0"
         transform="matrix(-0.2,0,0,-0.2,-1.2,0)"
         style="stroke-width:1pt;stroke:#999999;fill-rule:evenodd;fill:#999999"
         d="M 0,0 5,-5 -12.5,0 5,5 0,0 z"
         id="path3459" />
    </marker>
    <marker
       style="overflow:visible"
       id="Arrow1SendWoK"
       refX="0"
       refY="0"
       orient="auto"
       inkscape:stockid="Arrow1SendWoK">
      <path
         inkscape:connector-curvature="0"
         transform="matrix(-0.2,0,0,-0.2,-1.2,0)"
         style="stroke-width:1pt;stroke:#999999;fill-rule:evenodd;fill:#999999"
         d="M 0,0 5,-5 -12.5,0 5,5 0,0 z"
         id="path3462" />
    </marker>
    <marker
       style="overflow:visible"
       id="Arrow1SendWcS"
       refX="0"
       refY="0"
       orient="auto"
       inkscape:stockid="Arrow1SendWcS">
      <path
         inkscape:connector-curvature="0"
         transform="matrix(-0.2,0,0,-0.2,-1.2,0)"
         style="stroke-width:1pt;stroke:#999999;fill-rule:evenodd;fill:#999999"
         d="M 0,0 5,-5 -12.5,0 5,5 0,0 z"
         id="path3465" />
    </marker>
    <marker
       style="overflow:visible"
       id="Arrow1SendWCJ"
       refX="0"
       refY="0"
       orient="auto"
       inkscape:stockid="Arrow1SendWCJ">
      <path
         inkscape:connector-curvature="0"
         transform="matrix(-0.2,0,0,-0.2,-1.2,0)"
         style="stroke-width:1pt;stroke:#999999;fill-rule:evenodd;fill:#999999"
         d="M 0,0 5,-5 -12.5,0 5,5 0,0 z"
         id="path3468" />
    </marker>
    <marker
       style="overflow:visible"
       id="Arrow1SendWkyr"
       refX="0"
       refY="0"
       orient="auto"
       inkscape:stockid="Arrow1SendWkyr">
      <path
         inkscape:connector-curvature="0"
         transform="matrix(-0.2,0,0,-0.2,-1.2,0)"
         style="stroke-width:1pt;stroke:#999999;fill-rule:evenodd;fill:#999999"
         d="M 0,0 5,-5 -12.5,0 5,5 0,0 z"
         id="path3471" />
    </marker>
    <marker
       style="overflow:visible"
       id="Arrow1SendW3kV"
       refX="0"
       refY="0"
       orient="auto"
       inkscape:stockid="Arrow1SendW3kV">
      <path
         inkscape:connector-curvature="0"
         transform="matrix(-0.2,0,0,-0.2,-1.2,0)"
         style="stroke:#999999;stroke-width:1pt;fill:#999999;fill-rule:evenodd"
         d="M 0,0 5,-5 -12.5,0 5,5 0,0 z"
         id="path3748" />
    </marker>
    <marker
       style="overflow:visible"
       id="Arrow1SendWXy6"
       refX="0"
       refY="0"
       orient="auto"
       inkscape:stockid="Arrow1SendWXy6">
      <path
         inkscape:connector-curvature="0"
         transform="matrix(-0.2,0,0,-0.2,-1.2,0)"
         style="stroke:#b3b3b3;stroke-width:1pt;fill:#b3b3b3;fill-rule:evenodd"
         d="M 0,0 5,-5 -12.5,0 5,5 0,0 z"
         id="path3751" />
    </marker>
    <marker
       style="overflow:visible"
       id="Arrow1SendWoK8"
       refX="0"
       refY="0"
       orient="auto"
       inkscape:stockid="Arrow1SendWoK8">
      <path
         inkscape:connector-curvature="0"
         transform="matrix(-0.2,0,0,-0.2,-1.2,0)"
         style="stroke:#b3b3b3;stroke-width:1pt;fill:#b3b3b3;fill-rule:evenodd"
         d="M 0,0 5,-5 -12.5,0 5,5 0,0 z"
         id="path3754" />
    </marker>
    <marker
       style="overflow:visible"
       id="Arrow1SendWcSM"
       refX="0"
       refY="0"
       orient="auto"
       inkscape:stockid="Arrow1SendWcSM">
      <path
         inkscape:connector-curvature="0"
         transform="matrix(-0.2,0,0,-0.2,-1.2,0)"
         style="stroke:#b3b3b3;stroke-width:1pt;fill:#b3b3b3;fill-rule:evenodd"
         d="M 0,0 5,-5 -12.5,0 5,5 0,0 z"
         id="path3757" />
    </marker>
    <marker
       style="overflow:visible"
       id="Arrow1SendWCJ0"
       refX="0"
       refY="0"
       orient="auto"
       inkscape:stockid="Arrow1SendWCJ0">
      <path
         inkscape:connector-curvature="0"
         transform="matrix(-0.2,0,0,-0.2,-1.2,0)"
         style="stroke:#b3b3b3;stroke-width:1pt;fill:#b3b3b3;fill-rule:evenodd"
         d="M 0,0 5,-5 -12.5,0 5,5 0,0 z"
         id="path3760" />
    </marker>
    <marker
       style="overflow:visible"
       id="Arrow1SendWkyrR"
       refX="0"
       refY="0"
       orient="auto"
       inkscape:stockid="Arrow1SendWkyrR">
      <path
         inkscape:connector-curvature="0"
         transform="matrix(-0.2,0,0,-0.2,-1.2,0)"
         style="stroke:#b3b3b3;stroke-width:1pt;fill:#b3b3b3;fill-rule:evenodd"
         d="M 0,0 5,-5 -12.5,0 5,5 0,0 z"
         id="path3763" />
    </marker>
    <marker
       style="overflow:visible"
       id="Arrow1SendW3kV7"
       refX="0"
       refY="0"
       orient="auto"
       inkscape:stockid="Arrow1SendW3kV7">
      <path
         inkscape:connector-curvature="0"
         transform="matrix(-0.2,0,0,-0.2,-1.2,0)"
         style="fill-rule:evenodd;stroke:#808080;stroke-width:1pt;fill:#808080"
         d="M 0,0 5,-5 -12.5,0 5,5 0,0 z"
         id="path3896" />
    </marker>
    <marker
       style="overflow:visible"
       id="Arrow1SendWXy6m"
       refX="0"
       refY="0"
       orient="auto"
       inkscape:stockid="Arrow1SendWXy6m">
      <path
         inkscape:connector-curvature="0"
         transform="matrix(-0.2,0,0,-0.2,-1.2,0)"
         style="fill-rule:evenodd;stroke:#808080;stroke-width:1pt;fill:#808080"
         d="M 0,0 5,-5 -12.5,0 5,5 0,0 z"
         id="path3899" />
    </marker>
    <marker
       style="overflow:visible"
       id="Arrow1SendWoK8q"
       refX="0"
       refY="0"
       orient="auto"
       inkscape:stockid="Arrow1SendWoK8q">
      <path
         inkscape:connector-curvature="0"
         transform="matrix(-0.2,0,0,-0.2,-1.2,0)"
         style="fill-rule:evenodd;stroke:#808080;stroke-width:1pt;fill:#808080"
         d="M 0,0 5,-5 -12.5,0 5,5 0,0 z"
         id="path3902" />
    </marker>
    <marker
       style="overflow:visible"
       id="Arrow1SendWcSMy"
       refX="0"
       refY="0"
       orient="auto"
       inkscape:stockid="Arrow1SendWcSMy">
      <path
         inkscape:connector-curvature="0"
         transform="matrix(-0.2,0,0,-0.2,-1.2,0)"
         style="fill-rule:evenodd;stroke:#808080;stroke-width:1pt;fill:#808080"
         d="M 0,0 5,-5 -12.5,0 5,5 0,0 z"
         id="path3905" />
    </marker>
    <marker
       style="overflow:visible"
       id="Arrow1SendWCJ0z"
       refX="0"
       refY="0"
       orient="auto"
       inkscape:stockid="Arrow1SendWCJ0z">
      <path
         inkscape:connector-curvature="0"
         transform="matrix(-0.2,0,0,-0.2,-1.2,0)"
         style="fill-rule:evenodd;stroke:#808080;stroke-width:1pt;fill:#808080"
         d="M 0,0 5,-5 -12.5,0 5,5 0,0 z"
         id="path3908" />
    </marker>
    <marker
       style="overflow:visible"
       id="Arrow1SendWkyrRu"
       refX="0"
       refY="0"
       orient="auto"
       inkscape:stockid="Arrow1SendWkyrRu">
      <path
         inkscape:connector-curvature="0"
         transform="matrix(-0.2,0,0,-0.2,-1.2,0)"
         style="fill-rule:evenodd;stroke:#808080;stroke-width:1pt;fill:#808080"
         d="M 0,0 5,-5 -12.5,0 5,5 0,0 z"
         id="path3911" />
    </marker>
    <marker
       style="overflow:visible"
       id="Arrow1SendWcSMy-1"
       refX="0"
       refY="0"
       orient="auto"
       inkscape:stockid="Arrow1SendWcSMy">
      <path
         inkscape:connector-curvature="0"
         transform="matrix(-0.2,0,0,-0.2,-1.2,0)"
         style="fill:#808080;fill-rule:evenodd;stroke:#808080;stroke-width:1pt"
         d="M 0,0 5,-5 -12.5,0 5,5 0,0 z"
         id="path3905-9" />
    </marker>
    <marker
       style="overflow:visible"
       id="Arrow1SendWcSMyt"
       refX="0"
       refY="0"
       orient="auto"
       inkscape:stockid="Arrow1SendWcSMyt">
      <path
         inkscape:connector-curvature="0"
         transform="matrix(-0.2,0,0,-0.2,-1.2,0)"
         style="stroke:#555555;stroke-width:1pt;fill:#555555;fill-rule:evenodd"
         d="M 0,0 5,-5 -12.5,0 5,5 0,0 z"
         id="path5007" />
    </marker>
    <marker
       style="overflow:visible"
       id="Arrow1SendWcSMyj"
       refX="0"
       refY="0"
       orient="auto"
       inkscape:stockid="Arrow1SendWcSMyj">
      <path
         inkscape:connector-curvature="0"
         transform="matrix(-0.2,0,0,-0.2,-1.2,0)"
         style="stroke:#555555;stroke-width:1pt;fill:#555555;fill-rule:evenodd"
         d="M 0,0 5,-5 -12.5,0 5,5 0,0 z"
         id="path5010" />
    </marker>
    <marker
       style="overflow:visible"
       id="Arrow1SendWcSMyl"
       refX="0"
       refY="0"
       orient="auto"
       inkscape:stockid="Arrow1SendWcSMyl">
      <path
         inkscape:connector-curvature="0"
         transform="matrix(-0.2,0,0,-0.2,-1.2,0)"
         style="stroke:#555555;stroke-width:1pt;fill:#555555;fill-rule:evenodd"
         d="M 0,0 5,-5 -12.5,0 5,5 0,0 z"
         id="path5013" />
    </marker>
    <marker
       style="overflow:visible"
       id="Arrow1SendWcSMyw"
       refX="0"
       refY="0"
       orient="auto"
       inkscape:stockid="Arrow1SendWcSMyw">
      <path
         inkscape:connector-curvature="0"
         transform="matrix(-0.2,0,0,-0.2,-1.2,0)"
         style="stroke:#555555;stroke-width:1pt;fill:#555555;fill-rule:evenodd"
         d="M 0,0 5,-5 -12.5,0 5,5 0,0 z"
         id="path5016" />
    </marker>
    <marker
       style="overflow:visible"
       id="Arrow1SendWcSMyr"
       refX="0"
       refY="0"
       orient="auto"
       inkscape:stockid="Arrow1SendWcSMyr">
      <path
         inkscape:connector-curvature="0"
         transform="matrix(-0.2,0,0,-0.2,-1.2,0)"
         style="stroke:#555555;stroke-width:1pt;fill:#555555;fill-rule:evenodd"
         d="M 0,0 5,-5 -12.5,0 5,5 0,0 z"
         id="path5019" />
    </marker>
    <marker
       style="overflow:visible"
       id="Arrow1SendWcSMyT"
       refX="0"
       refY="0"
       orient="auto"
       inkscape:stockid="Arrow1SendWcSMyT">
      <path
         inkscape:connector-curvature="0"
         transform="matrix(-0.2,0,0,-0.2,-1.2,0)"
         style="stroke:#555555;stroke-width:1pt;fill:#555555;fill-rule:evenodd"
         d="M 0,0 5,-5 -12.5,0 5,5 0,0 z"
         id="path5022" />
    </marker>
  </defs>
  <metadata
     id="metadata3367">
    <rdf:RDF>
      <cc:Work
         rdf:about="">
        <dc:format>image/svg+xml</dc:format>
        <dc:type
           rdf:resource="http://purl.org/dc/dcmitype/StillImage" />
        <dc:title></dc:title>
      </cc:Work>
    </rdf:RDF>
  </metadata>
  <g
     inkscape:label="Layer 1"
     inkscape:groupmode="layer"
     id="layer1">
    <path
       style="color:#000000;fill:#555555;fill-opacity:1;fill-rule:nonzero;stroke:#555555;stroke-width:32.3423233;stroke-linecap:butt;stroke-linejoin:miter;stroke-miterlimit:4;stroke-opacity:1;stroke-dasharray:none;stroke-dashoffset:0;marker:none;marker-end:url(#Arrow1SendWcSMyj);visibility:visible;display:inline;overflow:visible;enable-background:accumulate"
       d="m 419.73746,500.40166 0,263.35893"
       id="path5177"
       inkscape:connector-curvature="0" />
    <path
       inkscape:connector-curvature="0"
       id="path2987"
       d="m 419.73746,494.67209 0,-263.35893"
       style="color:#000000;fill:#555555;fill-opacity:1;fill-rule:nonzero;stroke:#555555;stroke-width:32.3423233;stroke-linecap:butt;stroke-linejoin:miter;stroke-miterlimit:4;stroke-opacity:1;stroke-dasharray:none;stroke-dashoffset:0;marker:none;marker-end:url(#Arrow1SendWcSMyj);visibility:visible;display:inline;overflow:visible;enable-background:accumulate" />
    <path
       sodipodi:nodetypes="cc"
       inkscape:connector-curvature="0"
       id="path4418"
       d="m 403.12373,494.8814 -129.33864,7e-5"
       style="color:#000000;fill:#555555;fill-opacity:1;fill-rule:nonzero;stroke:#555555;stroke-width:31.59542274;stroke-linecap:butt;stroke-linejoin:miter;stroke-miterlimit:4;stroke-opacity:1;stroke-dasharray:none;stroke-dashoffset:0;marker:none;marker-end:url(#Arrow1SendWcSMyt);visibility:visible;display:inline;overflow:visible;enable-background:accumulate" />
    <path
       transform="matrix(-0.9670794,0,0,0.9670794,460.49873,303.87492)"
       d="m 68.571426,198.57143 a 27.142857,27.142857 0 1 1 -54.285713,0 27.142857,27.142857 0 1 1 54.285713,0 z"
       sodipodi:ry="27.142857"
       sodipodi:rx="27.142857"
       sodipodi:cy="198.57143"
       sodipodi:cx="41.42857"
       id="path2985"
       style="color:#000000;fill:#666666;fill-opacity:1;fill-rule:nonzero;stroke:#4d4d4d;stroke-opacity:1;marker:none;visibility:visible;display:inline;overflow:visible;enable-background:accumulate"
       sodipodi:type="arc" />
    <text
       xml:space="preserve"
       style="font-size:45.27925491px;font-style:normal;font-variant:normal;font-weight:normal;font-stretch:normal;line-height:125%;letter-spacing:0px;word-spacing:0px;fill:#656565;fill-opacity:1;stroke:#666666;stroke-width:1.61711621;stroke-opacity:1;font-family:Abel;-inkscape-font-specification:Abel"
       x="447.75082"
       y="309.02728"
       id="text4597-4"
       sodipodi:linespacing="125%"><tspan
         style="fill:#656565;fill-opacity:1;stroke:#666666;stroke-width:1.61711621;stroke-opacity:1"
         sodipodi:role="line"
         x="447.75082"
         y="309.02728"
         id="tspan4601-2" /><tspan
         style="fill:#656565;fill-opacity:1;stroke:#666666;stroke-width:1.61711621;stroke-opacity:1"
         sodipodi:role="line"
         x="447.75082"
         y="365.62634"
         id="tspan5179">Smash</tspan></text>
    <text
       xml:space="preserve"
       style="font-size:45.27925491px;font-style:normal;font-variant:normal;font-weight:normal;font-stretch:normal;line-height:125%;letter-spacing:0px;word-spacing:0px;fill:#656565;fill-opacity:1;stroke:#666666;stroke-width:1.61711621;stroke-opacity:1;font-family:Abel;-inkscape-font-specification:Abel"
       x="198.27423"
       y="468.6228"
       id="text4597-4-5-5-9"
       sodipodi:linespacing="125%"><tspan
         style="fill:#656565;fill-opacity:1;stroke:#666666;stroke-width:1.61711621;stroke-opacity:1"
         sodipodi:role="line"
         x="198.27423"
         y="468.6228"
         id="tspan4712">Trick</tspan></text>
    <text
       xml:space="preserve"
       style="font-size:45.27925491px;font-style:normal;font-variant:normal;font-weight:normal;font-stretch:normal;line-height:125%;letter-spacing:0px;word-spacing:0px;fill:#656565;fill-opacity:1;stroke:#666666;stroke-width:1.61711621;stroke-opacity:1;font-family:Abel;-inkscape-font-specification:Abel"
       x="472.03394"
       y="712.4043"
       id="text4597-4-9"
       sodipodi:linespacing="125%"><tspan
         style="fill:#656565;fill-opacity:1;stroke:#666666;stroke-width:1.61711621;stroke-opacity:1"
         sodipodi:role="line"
         x="472.03394"
         y="712.4043"
         id="tspan4601-2-3">Backhand</tspan><tspan
         style="fill:#656565;fill-opacity:1;stroke:#666666;stroke-width:1.61711621;stroke-opacity:1"
         sodipodi:role="line"
         x="472.03394"
         y="769.00336"
         id="tspan5179-9">Smash</tspan></text>
    <text
       xml:space="preserve"
       style="font-size:45.27925491px;font-style:normal;font-variant:normal;font-weight:normal;font-stretch:normal;line-height:125%;letter-spacing:0px;word-spacing:0px;fill:#656565;fill-opacity:1;stroke:#666666;stroke-width:1.61711621;stroke-opacity:1;font-family:Abel;-inkscape-font-specification:Abel"
       x="274.04404"
       y="872.00836"
       id="text4597-4-9-2"
       sodipodi:linespacing="125%"><tspan
         style="fill:#656565;fill-opacity:1;stroke:#666666;stroke-width:1.61711621;stroke-opacity:1"
         sodipodi:role="line"
         x="274.04404"
         y="872.00836"
         id="tspan5179-9-4">Tap in area for any</tspan><tspan
         style="fill:#656565;fill-opacity:1;stroke:#666666;stroke-width:1.61711621;stroke-opacity:1"
         sodipodi:role="line"
         x="274.04404"
         y="928.60742"
         id="tspan5231">unknown shot</tspan></text>
  </g>
</svg>
